#N canvas 827 239 550 400 12;
#X obj 12 59 hsl 526 231 0 128281 0 0 empty \$0-playhead empty -2 -8 0 10 #191919 #ff0064 #e1e1e1 0 1;
#N canvas 0 0 450 250 (subpatch) 0;
#X array \$0-samp 128281 float 0;
#X coords 0 1 128280 -1 532 232 1;
#X restore 9 59 graph;
#X obj 7 26 cnv 15 71 31 empty empty empty 20 12 0 14 #232323 #191919 0;
#X obj 9 9 sfpick;
#X obj 359 719 soundfiler;
#X obj 279 629 cyclone/append \$0-samp;
#X msg 279 589 read -resize \$1;
#X obj 239 1919 tabread~ \$0-samp;
#X obj 359 759 nbx 4 18 -1e+37 1e+37 0 0 empty empty empty 0 -8 0 10 #191919 #e1e1e1 #e1e1e1 0 256;
#X obj 99 2869 dac~, f 10;
#X obj 239 2109 hip~ 20;
#X obj 359 859 hot, f 8;
#X obj 129 -71 text define -k \$0-divs;
#A set 4 \; 8 \; 8 \; 16 \; 16 \;;
#X obj 509 719 text get \$0-divs;
#X obj 509 629 bng 25 250 50 0 empty empty empty 17 7 0 10 #191919 #e1e1e1 #e1e1e1;
#X obj 549 929 nbx 4 19 -1e+37 1e+37 0 0 empty empty empty 0 -8 0 10 #191919 #e1e1e1 #e1e1e1 0 256;
#X obj 359 1109 *, f 37;
#X obj 359 929 /, f 13;
#X obj 449 1369 +, f 6;
#X obj 359 1229 t f f, f 8;
#X obj 279 1439 nbx 4 18 -1e+37 1e+37 0 0 empty empty empty 0 -8 0 10 #191919 #e1e1e1 #e1e1e1 0 256;
#X obj 369 1439 nbx 4 18 -1e+37 1e+37 0 0 empty empty empty 0 -8 0 10 #191919 #e1e1e1 #e1e1e1 0 256;
#X obj 359 1039 t f f f, f 23;
#X obj 418 1689 nbx 4 18 -1e+37 1e+37 0 0 empty empty empty 0 -8 0 10 #191919 #e1e1e1 #e1e1e1 0 256;
#X obj 239 1859 line~;
#X obj 539 1199 samps2ms;
#X obj 9 -71 random 101;
#X obj 9 -31 * 0.01;
#X obj 549 839 random 6;
#X obj 569 1909 delread~ \$0-delay;
#X obj 299 2869 delwrite~ \$0-delay 500;
#X obj 569 1739 random;
#X obj 569 1869 line 1;
#X obj 479 1969 line~;
#X obj 649 1309 delay;
#X obj 509 679 random 5;
#X obj 479 1881 tgl 25 0 \$0-cW empty empty 17 7 0 10 #191919 #e1e1e1 #e1e1e1 0 1;
#X obj 509 759 t f b f, f 15;
#X obj 479 1799 key;
#X obj 569 1689 t b f, f 8;
#X obj 239 2019 *~, f 10;
#X obj 9 -231 key;
#X obj 379 1909 tgl 25 1 \$0-cQ empty empty 17 7 0 10 #191919 #e1e1e1 #e1e1e1 0 1;
#X msg 569 1819 \$1 100;
#X obj 379 1829 key;
#X obj 379 1869 sel 113;
#X msg 479 1929 \$1 100;
#X obj 330 2109 key;
#X obj 330 2189 bng 25 250 50 0 empty empty empty 17 7 0 10 #191919 #e1e1e1 #e1e1e1;
#X obj 179 2279 tgl 25 0 \$0-cE empty empty 17 7 0 10 #191919 #e1e1e1 #e1e1e1 0 1;
#X obj 179 2329 + 1;
#X obj 240 2419 crusher~ 0 0, f 16;
#X obj 149 1359 key;
#X obj 99 2349 key;
#X obj 99 2429 tgl 25 0 \$0-cY empty empty 17 7 0 10 #191919 #e1e1e1 #e1e1e1 0 1;
#X obj 99 2469 + 1;
#X obj 99 2389 sel 121;
#X obj 149 1439 tgl 25 0 \$0-cR empty empty 17 7 0 10 #191919 #e1e1e1 #e1e1e1 0 1;
#X obj 99 309 cnv 15 81 81 empty \$0-W W 8 40 0 80 #646464 #000000 0;
#X obj 9 309 cnv 15 81 81 empty \$0-Q Q 16 40 0 80 #646464 #000000 0;
#X obj 189 309 cnv 15 81 81 empty \$0-E E 20 40 0 80 #646464 #000000 0;
#X obj 279 309 cnv 15 81 81 empty \$0-R R 19 40 0 80 #646464 #000000 0;
#X obj 369 309 cnv 15 81 81 empty \$0-T T 20 40 0 80 #646464 #000000 0;
#X obj 459 309 cnv 15 81 81 empty \$0-Y Y 20 40 0 80 #646464 #000000 0;
#X msg 689 229 color #646464 #000000 #000000;
#X msg 969 229 color #646464 #000000 #000000;
#X obj 969 299 s \$0-W;
#X obj 689 299 s \$0-Q;
#X msg 1249 229 color #646464 #000000 #000000;
#X msg 1799 229 color #646464 #000000 #000000;
#X msg 1529 229 color #646464 #000000 #000000;
#X obj 1249 299 s \$0-E;
#X msg 2059 229 color #646464 #000000 #000000;
#X obj 2059 299 s \$0-Y;
#X msg 1009 259 color #00ff00 #000000 #000000;
#X obj 689 139 r \$0-cQ;
#X obj 689 179 sel 0 1, f 14;
#X obj 969 179 sel 0 1, f 14;
#X obj 1249 179 sel 0 1, f 14;
#X obj 1529 179 sel 0 1, f 14;
#X obj 2059 179 sel 0 1, f 14;
#X obj 2059 139 r \$0-cY;
#X obj 1249 139 r \$0-cE;
#X obj 969 139 r \$0-cW;
#X obj 9 -151 bng 25 250 50 0 \$0-cT empty empty 17 7 0 10 #191919 #e1e1e1 #e1e1e1;
#X msg 1839 259 color #ff00ff #000000 #000000;
#X msg 1569 259 color #ffff00 #000000 #000000;
#X obj -111 149 s \$0-read;
#X obj 279 549 r \$0-read;
#X obj 9 -191 sel 116;
#X obj 149 1399 sel 114;
#X obj 1799 139 r \$0-cT;
#X obj 1799 299 s \$0-T;
#X obj 1529 139 r \$0-cR;
#X obj 1529 299 s \$0-R;
#X obj 1799 189 delay 100;
#X obj 479 1839 sel 119;
#X obj 330 2149 sel 101;
#X obj 179 2369 gate~ 2 1, f 12;
#X obj 99 2539 gate~ 2 1, f 15;
#X obj 479 2019 gate~ 1, f 16;
#X obj 330 2379 nbx 4 18 -1e+37 1e+37 0 0 empty empty empty 0 -8 0 10 #191919 #e1e1e1 #e1e1e1 0 256;
#X obj 330 2289 random 1001;
#X obj 330 2329 scale 0 1000 0.2 0.85;
#X obj 69 -151 loadbang;
#X obj 79 1859 line 1;
#X obj 79 1919 s \$0-playhead;
#X msg 189 859 range 0 \$1;
#X obj 189 899 s \$0-playhead;
#X obj 649 1109 r \$0-cQ;
#X msg 649 1199 stop;
#X obj 199 2869 s~ \$0-main;
#X obj 331 9 scope~ 209 41 2 3 256 -1 1 0 0 0 0 255 0 100 25 25 25 25 25 25 0 empty;
#X obj 330 -41 r~ \$0-main;
#X msg 729 259 color #ff0064 #000000 #000000;
#X msg 1289 259 color #0050ff #000000 #000000;
#X msg 2099 259 color #00ffff #000000 #000000;
#X obj 239 1729 pack f f f, f 29;
#X msg 239 1789 \$1 0 \, \$2 \$3;
#X obj 239 1579 gate 2 1, f 9;
#X obj 329 1579 gate 2 1, f 9;
#X obj 149 1479 + 1;
#X obj 279 1649 swap;
#X obj 569 1779 * 0.5;
#X obj 649 1149 sel 0;
#X obj 509 509 r \$0-cQ;
#X obj 509 549 sel 1;
#X obj 466 929 r \$0-cQ;
#X obj 359 989 spigot, f 18;
#X obj 99 2789 hip~ 20;
#X obj 99 2669 clip~ -1 1;
#X obj 100 2712 tanh~;
#X obj 99 2751 lop~ 20000;
#X obj 239 2459 *~ 2;
#X obj 181 2589 flanger~ 0.1 10 -0.5;
#X obj 239 1969 *~ 2;
#X text 589 548 patched by Jim Frize 2024;
#X connect 3 0 87 0 32.................h....j3+++uH....I9+++WF....;
#X connect 4 0 8 0;
#X connect 5 0 4 0 32.................X.....E....F....PA...bD....;
#X connect 6 0 5 0;
#X connect 7 0 135 0;
#X connect 8 0 11 0;
#X connect 8 0 107 0 32.................e....b0++++G....W8+++KE....;
#X connect 10 0 98 1;
#X connect 11 0 17 0;
#X connect 11 1 17 1 32.................Z....TB...fF....k....LC....;
#X connect 13 0 37 0;
#X connect 14 0 35 0;
#X connect 15 0 16 1 32.................QA...PA...PT....T....DJ....;
#X connect 16 0 19 0;
#X connect 17 0 128 0;
#X connect 18 0 21 0 32.................Y....D6+++eF....w9+++OC....;
#X connect 19 0 20 0 32.................UA...D6+++eU....w9+++eN....;
#X connect 19 1 18 0 32.................VA...bC...fU....2....jG....;
#X connect 20 0 119 1;
#X connect 21 0 120 1;
#X connect 22 0 16 0;
#X connect 22 1 18 1 32.................wC...jD...P7....IA...LW....;
#X connect 22 2 25 0 32.................oA...bB...PZ....m....zH....;
#X connect 23 0 117 2;
#X connect 24 0 7 0 32.................U.........PE.........jB....;
#X connect 25 0 34 0 32.................5....3F...fN....tA...rE....;
#X connect 25 0 23 0 32.................MF...j3+++eiA...I9+++ec....;
#X connect 25 0 39 0 32.................MF...XS...PiA...1D...rd....;
#X connect 26 0 27 0;
#X connect 27 0 3 0;
#X connect 28 0 15 0;
#X connect 29 0 100 1;
#X connect 31 0 123 0;
#X connect 32 0 29 0;
#X connect 33 0 100 0;
#X connect 34 0 14 0 48.................o....7F...PJ....uA...jR+++ec++++oz+++W2+++uQ8+++;
#X connect 35 0 13 0;
#X connect 36 0 46 0;
#X connect 37 0 11 1 32.................v....X2+++OL....18++++F....;
#X connect 37 1 28 0;
#X connect 37 2 28 1;
#X connect 38 0 96 0;
#X connect 39 0 31 0;
#X connect 39 1 31 1;
#X connect 40 0 10 0;
#X connect 41 0 89 0;
#X connect 42 0 40 1 32.................b....b5+++OG....m9+++WE....;
#X connect 43 0 32 0;
#X connect 44 0 45 0;
#X connect 45 0 42 0;
#X connect 46 0 33 0;
#X connect 47 0 97 0;
#X connect 48 0 102 0;
#X connect 48 0 49 0 32.................c....n1+++eG....p8+++GD....;
#X connect 49 0 50 0;
#X connect 50 0 98 0;
#X connect 51 0 133 0;
#X connect 52 0 90 0;
#X connect 53 0 56 0;
#X connect 54 0 55 0;
#X connect 55 0 99 0;
#X connect 56 0 54 0;
#X connect 57 0 121 0;
#X connect 64 0 67 0;
#X connect 65 0 66 0;
#X connect 68 0 71 0;
#X connect 69 0 92 0;
#X connect 70 0 94 0;
#X connect 72 0 73 0;
#X connect 74 0 66 0;
#X connect 75 0 76 0;
#X connect 76 0 64 0;
#X connect 76 1 114 0;
#X connect 77 0 65 0;
#X connect 77 1 74 0;
#X connect 78 0 68 0;
#X connect 78 1 115 0;
#X connect 79 0 70 0;
#X connect 79 1 86 0;
#X connect 80 0 72 0;
#X connect 80 1 116 0;
#X connect 81 0 80 0;
#X connect 82 0 78 0;
#X connect 83 0 77 0;
#X connect 84 0 26 0;
#X connect 85 0 92 0;
#X connect 86 0 94 0;
#X connect 88 0 6 0;
#X connect 89 0 84 0;
#X connect 90 0 57 0;
#X connect 91 0 95 0;
#X connect 91 0 85 0 32.................S....fB...vD....n....TF....;
#X connect 93 0 79 0;
#X connect 95 0 69 0;
#X connect 96 0 36 0;
#X connect 97 0 48 0;
#X connect 98 0 99 1;
#X connect 98 1 51 0;
#X connect 99 0 130 0;
#X connect 99 1 134 0;
#X connect 100 0 10 0 32.................d....Dw+++uG....Q7+++eD....;
#X connect 101 0 51 2;
#X connect 102 0 103 0;
#X connect 103 0 101 0;
#X connect 104 0 26 0 32.................e....T7++++G....E++++2C....;
#X connect 105 0 106 0;
#X connect 107 0 108 0;
#X connect 109 0 124 0;
#X connect 110 0 34 0;
#X connect 113 0 112 0;
#X connect 114 0 67 0;
#X connect 115 0 71 0;
#X connect 116 0 73 0;
#X connect 117 0 118 0;
#X connect 118 0 24 0;
#X connect 118 0 105 0 32.................U....b5+++eE....m9+++mB....;
#X connect 119 0 117 0;
#X connect 119 1 122 0;
#X connect 120 0 117 1;
#X connect 120 1 122 1 32.................Z....D7+++uF....A++++OC....;
#X connect 121 0 120 0 32.................a....PK...vF....zB...DE....;
#X connect 121 0 119 0 32.................a....nE...vF....ZA...DE....;
#X connect 122 0 117 0 32.................e....j8++++G....Y++++2C....;
#X connect 122 1 117 1 32.................e....7A...vG....e....zC....;
#X connect 123 0 43 0;
#X connect 124 0 110 0;
#X connect 125 0 126 0;
#X connect 126 0 14 0;
#X connect 127 0 128 1;
#X connect 128 0 22 0;
#X connect 129 0 9 0;
#X connect 129 0 9 1 32.................e....LC...vG....y....zC....;
#X connect 129 0 111 0 32.................e....PF...vG....jA...zC....;
#X connect 129 0 30 0 32.................d....fL...fG....HC...zC....;
#X connect 130 0 131 0;
#X connect 131 0 132 0;
#X connect 132 0 129 0;
#X connect 133 0 99 1 32.................e....b7++++G....G++++2C....;
#X connect 134 0 130 0 32.................e....D6++++G....w9+++OM....;
#X connect 135 0 40 0;
